<?xml version="1.0" encoding="utf-8"?>
<!-- Generator: Adobe Illustrator 22.0.1, SVG Export Plug-In . SVG Version: 6.00 Build 0)  -->
<svg version="1.1" id="Layer_1" focusable="false" xmlns="http://www.w3.org/2000/svg" xmlns:xlink="http://www.w3.org/1999/xlink"
	 x="0px" y="0px" viewBox="0 0 576 512" style="enable-background:new 0 0 576 512;" xml:space="preserve">
<path fill="#0F82D9" d="M514.9,32h-0.2c-24.1,0.1-144.8,8.8-219.6,48.1c-4,2.1-10.3,2.1-14.4,0C206,40.8,85.3,32.1,61.3,32h-0.2
	C27.4,32,0,58.5,0,91v296.7c0,31.4,25.4,57.3,57.8,58.9c34.8,1.8,122,8.3,181.9,30.4c5.3,2,10.6,3,16.3,3h64c5.6,0,11-1.1,16.3-3
	c59.9-22.1,147.1-28.6,181.9-30.4c32.4-1.6,57.8-27.5,57.8-58.9V91C576,58.5,548.6,32,514.9,32z M272,433c0,8.6-7.1,15.1-15.3,15.1
	c-1.8,0-3.6-0.3-5.4-1c-62.4-23.2-149-30.3-191.9-32.5C44,413.9,32,402,32,387.7V91c0-14.9,13.1-27,29.1-27
	c19.3,0.1,122.5,7.4,192.1,38.3c11.3,5,18.6,15.8,18.7,27.8l0.1,100.3V433z M516.5,414.6c-42.9,2.2-129.5,9.3-191.9,32.5
	c-1.8,0.7-3.6,1-5.4,1c-8.1,0-15.3-6.5-15.3-15.1V230.5l0.1-100.3c0-12.1,7.4-22.8,18.7-27.8C392.4,71.4,495.6,64.1,514.9,64
	c16,0,29.1,12.1,29.1,27v296.7h0C544,402,532,413.9,516.5,414.6z"/>
<path fill="#0F82D9" d="M272,230.5V433c0,8.6-7.1,15.1-15.3,15.1c-1.8,0-3.6-0.3-5.4-1c-62.4-23.2-149-30.3-191.9-32.5C44,413.9,32,402,32,387.7V91
	c0-14.9,13.1-27,29.1-27c19.3,0.1,122.5,7.4,192.1,38.3c11.3,5,18.6,15.8,18.7,27.8L272,230.5z"/>
</svg>
