<svg xmlns="http://www.w3.org/2000/svg" viewBox="0 0 512.01 384.21"><title>Asset 1</title><g id="Layer_2" data-name="Layer 2"><g id="Layer_1-2" data-name="Layer 1"><path fill="#ffffff" d="M12.41,148,245.35,253.7a25.61,25.61,0,0,0,21.29,0L499.58,148c16.55-7.51,16.55-32.52,0-40L266.65,2.32a25.61,25.61,0,0,0-21.29,0L12.41,108C-4.14,115.5-4.14,140.52,12.41,148Zm487.18,88.28L441.5,210,279.86,283.25a57.64,57.64,0,0,1-47.72,0L70.51,210l-58.1,26.33c-16.55,7.5-16.55,32.5,0,40L245.35,381.9a25.68,25.68,0,0,0,21.29,0l233-105.59c16.55-7.5,16.55-32.5,0-40Z"/></g></g></svg>
