<?xml version="1.0" encoding="utf-8"?>
<!-- Generator: Adobe Illustrator 22.0.1, SVG Export Plug-In . SVG Version: 6.00 Build 0)  -->
<svg version="1.1" id="Layer_1" xmlns="http://www.w3.org/2000/svg" xmlns:xlink="http://www.w3.org/1999/xlink" x="0px" y="0px"
	 viewBox="0 0 115.1 119.3" style="enable-background:new 0 0 115.1 119.3;" xml:space="preserve">
<style type="text/css">
	.st0{fill:#FF6B6B;}
</style>
<title>Logo (2)</title>
<g id="Layer_2_1_">
	<g id="Logo">
		<path class="st0" d="M77.9,41C62.1,28.7,47.1,10.6,35.8,0.6c-0.9-0.8-5-0.9-7.4,0.8c-2.9,2.1-2.9,6.6-1.2,8.4
			C40.1,22.9,59,42.7,66.8,48.9c5.1,4.1,8.2,5.3,10.1,5.7c17.1,3.4,25.3,16,25.3,26.5c0,14-11.3,25.8-25.3,25.3
			c-3.6-0.1-7.1-0.9-10.5-2.3c-5.3-2.1-9.1-6.9-11.9-11.7c-2.2-3.8-3.2-13.3-7.4-18.6C40.7,65.8,25.6,51,18.4,44
			c-1.7-1.2-3.9-1.7-6-1.1c-1,0.4-1.9,0.9-2.7,1.7c-2.1,1.9-1.9,6.2-1.3,7.1c6.5,8.9,15.8,15.1,27.7,29.1c2.2,2.5,3,7.1,4.2,11.3
			c3.4,11.9,15.4,27.4,36.6,27.4c21.1,0,38.3-17.1,38.3-38.2c0,0,0-0.1,0-0.1c0.1-4.3-0.6-8.7-2-12.8c-0.2-0.6-2.9-8.1-11.7-16.4
			C91.8,42.9,80.7,43.3,77.9,41z"/>
		<path class="st0" d="M76.9,66.6c-8,0-14.5,6.5-14.5,14.5s6.5,14.5,14.5,14.5s14.5-6.5,14.5-14.5S84.9,66.6,76.9,66.6L76.9,66.6z"
			/>
		<path class="st0" d="M11.3,5.6l48.3,48.3c2.6,2.6,2.6,6.8,0,9.4l0,0c-2.6,2.6-6.8,2.6-9.4,0L1.9,15c-2.6-2.6-2.6-6.8,0-9.4l0,0
			C4.5,3,8.7,3,11.3,5.6z"/>
	</g>
</g>
</svg>
